<svg id="Capa_1" enable-background="new 0 0 512 512" height="512" viewBox="0 0 512 512" width="512" xmlns="http://www.w3.org/2000/svg"><g><path d="m492.804 198.28c0-26.024-8.548-51.865-24.069-72.762-2.47-3.326-7.167-4.018-10.492-1.549-3.325 2.47-4.02 7.168-1.549 10.493 6.906 9.299 12.238 19.713 15.816 30.698-13.06-13.456-31.328-21.83-51.516-21.83h-39.15c-17.849 0-32.37-14.526-32.37-32.38v-39.14c0-20.175-8.365-38.436-21.807-51.493 15.919 5.205 30.608 14.091 42.543 26.026l64.38 64.38c2.93 2.929 7.678 2.929 10.607 0s2.929-7.677 0-10.606l-64.38-64.38c-23.043-23.044-53.687-35.735-86.286-35.737h-.001-.005-176.695c-26.12 0-47.37 21.255-47.37 47.38v102.281h-9.845c-22.839 0-41.419 18.581-41.419 41.419v194.204c0 22.839 18.58 41.419 41.419 41.419h10.606l.328 47.269c.004.57.073 1.137.205 1.691 5.112 21.395 24.059 36.337 46.076 36.337h327.6c26.12 0 47.37-21.255 47.37-47.38zm-432.189-33.619h9.845v52.838h-9.845c-14.567 0-26.419-11.852-26.419-26.419s11.851-26.419 26.419-26.419zm384.814 332.339h-327.6c-14.774 0-27.525-9.841-31.287-24.034l-.321-46.263h13.627c4.143 0 7.5-3.358 7.5-7.5s-3.357-7.5-7.5-7.5h-39.233c-14.567 0-26.419-11.852-26.419-26.419v-162.331c7.175 5.958 16.385 9.546 26.419 9.546h17.325c.007 0 .013.001.019.001s.013-.001.019-.001h251.49c24.747 0 44.88 20.133 44.88 44.88v89.443c0 24.747-20.133 44.88-44.88 44.88h-199.62c-4.143 0-7.5 3.358-7.5 7.5s3.357 7.5 7.5 7.5h199.62c33.018 0 59.88-26.862 59.88-59.88v-89.443c0-33.018-26.862-59.88-59.88-59.88h-244.009v-170.119c0-17.854 14.521-32.38 32.37-32.38h159.835c31.325 0 56.81 25.485 56.81 56.81v39.14c0 26.125 21.25 47.38 47.37 47.38h39.15c31.261 0 56.7 25.381 56.805 56.617v249.673c0 17.854-14.521 32.38-32.37 32.38z"/><path d="m211.045 368.588c4.072.735 7.978-1.972 8.713-6.049l9.734-53.933 15.966 54.118c.026.089.055.178.084.266 1.275 3.797 4.813 6.339 8.815 6.339h.048c4.021-.02 7.558-2.604 8.799-6.428.028-.086.055-.173.08-.26l15.417-54.083 10.332 54.057c.777 4.069 4.717 6.734 8.774 5.959 4.068-.778 6.736-4.706 5.958-8.775l-14.856-77.736c-.844-4.135-4.376-7.189-8.59-7.427-4.207-.233-8.066 2.4-9.369 6.415-.027.086-.054.172-.079.259l-16.606 58.254-17.21-58.333c-.026-.09-.055-.179-.084-.267-1.346-4.003-5.224-6.601-9.44-6.317-4.212.283-7.711 3.376-8.524 7.607l-14.01 77.62c-.736 4.077 1.972 7.978 6.048 8.714z"/><path d="m326.109 369.155c.531.091 1.04.178 9.802.178 4.233 0 10.396-.02 19.418-.071 4.142-.023 7.481-3.4 7.458-7.542-.023-4.143-3.427-7.462-7.542-7.458-7.155.04-14.87.067-20.296.067-.024 0-.049 0-.073 0v-72.208c0-4.142-3.357-7.5-7.5-7.5s-7.5 3.358-7.5 7.5v79.64c-.001 3.655 2.632 6.777 6.233 7.394z"/><path d="m122.349 361.83c0 4.142 3.357 7.5 7.5 7.5s7.5-3.358 7.5-7.5v-79.707c0-4.142-3.357-7.5-7.5-7.5s-7.5 3.358-7.5 7.5v30.987h-40.159v-30.987c0-4.142-3.357-7.5-7.5-7.5s-7.5 3.358-7.5 7.5v79.707c0 4.142 3.357 7.5 7.5 7.5s7.5-3.358 7.5-7.5v-33.721h40.159z"/><path d="m153.991 289.622h14.42v72.207c0 4.142 3.357 7.5 7.5 7.5s7.5-3.358 7.5-7.5v-72.207h14.599c4.143 0 7.5-3.358 7.5-7.5s-3.357-7.5-7.5-7.5h-44.019c-4.143 0-7.5 3.358-7.5 7.5s3.357 7.5 7.5 7.5z"/></g></svg>