<svg xmlns="http://www.w3.org/2000/svg" viewBox="0 0 144.86 94.37"><defs><style>.a{fill:#1d1d1b;}</style></defs><title>ag</title><path class="a" d="M11.59.17a2.42,2.42,0,0,1,.86.14,7.23,7.23,0,0,0,1.07.32,4.68,4.68,0,0,1,1.12.88,2.87,2.87,0,0,1,.5.84,3.63,3.63,0,0,1,.19.84,4.67,4.67,0,0,0,.21.93V5.63a3.53,3.53,0,0,0,0,.54c0,.17,0,.44,0,.8s-.05.87-.11,1.51-.15,1.54-.29,2.69a1.74,1.74,0,0,1-.09.59c-.05.17-.11.37-.16.61a8.64,8.64,0,0,0-.17.92,10.74,10.74,0,0,0-.09,1.58l0,0a1.39,1.39,0,0,0-.12.55.19.19,0,0,1,0,.12l-.09.25-.08.26c0,.08.08.2.23.35s.23.28.23.36a.73.73,0,0,0,0,.25,0,0,0,0,1,0,0,1,1,0,0,1-.17.4,1.69,1.69,0,0,1-.25.32,2.19,2.19,0,0,1,0,.46.2.2,0,0,0,0,.08.3.3,0,0,1,0,.13,1.09,1.09,0,0,0,0,.34,1.24,1.24,0,0,0,0,.42.55.55,0,0,1-.15.46,1.9,1.9,0,0,1,0,.4,1,1,0,0,0,.08.4,1.39,1.39,0,0,0,0,.42.32.32,0,0,1,0,.16.33.33,0,0,0,0,.17.17.17,0,0,0,0,.13.85.85,0,0,0,0,.29,1.66,1.66,0,0,0,0,.46c0,.31.08.68.15,1.1a7.87,7.87,0,0,1,.1,1.3v.21a1.24,1.24,0,0,1,0,.33,1.81,1.81,0,0,0,0,.38.94.94,0,0,1,0,.3V26a4.8,4.8,0,0,1,0,.54,5.1,5.1,0,0,0,0,.55.88.88,0,0,1,0,.34c.06-.06.05,0,0,.1l-.27.48-.32.57a.94.94,0,0,0-.14.4l-.09,0a.38.38,0,0,1-.21-.12l0,.21.08.42s-.09.08-.12.08-.07-.08-.13-.25-.11-.37-.17-.61-.12-.49-.18-.76-.14-.51-.19-.73v-.13q-.25-1.1-.51-2.37c-.17-.85-.32-1.76-.46-2.71l-.38-.25a5.74,5.74,0,0,0-.82-1.05c-.32-.34-.75-.74-1.28-1.22.06,0,0,0-.1,0l-.49.13-.75.16h0c-.34,0-.7.07-1.1.13l-1.3.17a12.79,12.79,0,0,0-.75,1.93l-.63,2L4,24.44l-.08.26-.17.54a1.85,1.85,0,0,0-.09.23,3,3,0,0,1-.12.36l-.3.71a6.29,6.29,0,0,0-.37,1.31,6.76,6.76,0,0,1-.8.69,1.13,1.13,0,0,1-.63.19,1.26,1.26,0,0,1-1-.63A2,2,0,0,1,0,27a5,5,0,0,1,.29-1.53c.2-.57.49-1.46.89-2.67l.71-2.22L2.14,20a3.55,3.55,0,0,0,.25-.8c0-.22-.07-.47-.12-.75,0-.12,0-.21.06-.28s0-.14.06-.23.07-.19.13-.33.13-.34.21-.59v0a3.94,3.94,0,0,0,.55-.49,4.16,4.16,0,0,0,.54-.94c0-.11.14-.43.34-.95s.54-1.31,1-2.37,1.12-2.34,1.7-3.49A28.27,28.27,0,0,0,8.32,5.38L8.48,5a5.43,5.43,0,0,0,.32-.63c.15-.34.37-.81.65-1.43a1.19,1.19,0,0,1,.25-.38L10,1.91c.14-.26.29-.52.46-.78a4.57,4.57,0,0,1,.55-.67A.81.81,0,0,1,11.59.17Zm-1.24,7C10,8,9.44,9.38,8.65,11.42a3.6,3.6,0,0,0-.23.45c-.13.26-.28.6-.46,1s-.37.91-.55,1.47A14.13,14.13,0,0,0,7,16.09H7.9c.3,0,.72,0,1.26-.07l1.93-.14a3.16,3.16,0,0,0,.19-1.16c0-.68.07-1.43.08-2.25s0-1.58,0-2.31,0-1.14,0-1.26V8.46c0-.23,0-.55,0-.94a2.69,2.69,0,0,0,0-.34,2.82,2.82,0,0,0-.1-.54c-.06-.23-.12-.45-.17-.68v0C11,5.92,10.7,6.33,10.35,7.14Z"/><path class="a" d="M22.13,19.57c-.16.51-.36,1.11-.58,1.81-.37,1-.87,2.49-1.52,4.37a1,1,0,0,1-.79-.55,6.67,6.67,0,0,1-.68-1.39,14.27,14.27,0,0,1-.5-1.76,16.24,16.24,0,0,1-.29-1.85,1,1,0,0,0-.13-.38l-.21-.29c-.06-.14-.11-.31-.17-.5a4.51,4.51,0,0,1-.08-.93,2.21,2.21,0,0,1,.12-.8,4.42,4.42,0,0,1,.26-.58,6.25,6.25,0,0,0,.33-.72,4.76,4.76,0,0,0,.25-1.26c.14-.61.24-1.08.3-1.38a6.27,6.27,0,0,1,.33-1,9.49,9.49,0,0,1,.55-1c.22-.34.56-.84,1-1.51a2.52,2.52,0,0,0,.33-1.22c.79-.76,1.29-1.13,1.52-1.13a2.21,2.21,0,0,1,.58.37c.34.23,1,.73,1.89,1.52v.5a9,9,0,0,1-.08,1.39,4.09,4.09,0,0,1-.34,1.13c-.14.36-.32.77-.54,1.22s-.49,1.05-.8,1.8a1.37,1.37,0,0,0,0,.34c.64-.2,1.17-.35,1.59-.46A10.5,10.5,0,0,1,26,15c.45,0,1.15-.15,2.1-.29l.59-.25q.12-.67.21-1.05a6.27,6.27,0,0,1,.33-1,9.49,9.49,0,0,1,.55-1c.22-.34.56-.84,1-1.51a2.52,2.52,0,0,0,.33-1.22c.79-.76,1.29-1.13,1.52-1.13a2.21,2.21,0,0,1,.58.37c.34.23,1,.73,1.89,1.52v.5a9,9,0,0,1-.08,1.39,4.09,4.09,0,0,1-.34,1.13,5.67,5.67,0,0,1-.33.8,18.69,18.69,0,0,1,1.3,1.59,2.85,2.85,0,0,1,.34.59c0,.23-.37.72-1.1,1.47a2.26,2.26,0,0,0-1.21.34l-.68.46a10.67,10.67,0,0,1-.29,1.43c-.17.59-.41,1.36-.71,2.31s-.87,2.49-1.52,4.37a1,1,0,0,1-.79-.55,6.67,6.67,0,0,1-.68-1.39,14.27,14.27,0,0,1-.5-1.76,16.24,16.24,0,0,1-.29-1.85,1,1,0,0,0-.13-.38l-.21-.29-.38.13q-.42.16-.75.33l-.59.25a2.41,2.41,0,0,1-.76.09,9.11,9.11,0,0,1-.92,0,1.66,1.66,0,0,1-.51-.21,1,1,0,0,1-.33-.21.71.71,0,0,0-.38-.13A8.18,8.18,0,0,1,22.13,19.57Z"/><path class="a" d="M57,23.86l-.67.75-.08,0-.09.17-.46.42-.38.34,0,.12-.8.68-.58.46-.51.33-.71.51-.42.25-1.14.67-.25.09-.71.42-1,.58-.21.17H48.8a13.87,13.87,0,0,0-.54,1.79,2.6,2.6,0,0,1-.34.9.72.72,0,0,1,0,.38c0,.19-.1.41-.17.65s-.14.46-.21.67a2.06,2.06,0,0,0-.1.36,1.29,1.29,0,0,1-.19.57,3,3,0,0,0-.23.48,1.26,1.26,0,0,1,0,.54,1.09,1.09,0,0,1-.09.21c0,.06-.16.21-.31.44s-.32.5-.49.78-.33.57-.48.86-.27.54-.36.74a1.35,1.35,0,0,0-.27.31l-.42.61-.42.63c-.12.2-.2.3-.23.3a20.9,20.9,0,0,1-1.24,2.18A17.74,17.74,0,0,1,41.39,45c-.43.53-.9,1.05-1.39,1.56l-1.7,1.72a3.2,3.2,0,0,0-.9.46l-.94.67a8.73,8.73,0,0,1-.91.59,1.54,1.54,0,0,1-.73.25,3.6,3.6,0,0,1-1.77-.33c0-.14,0-.31-.06-.49s0-.35,0-.52a9.75,9.75,0,0,1,.29-2.31v-.17a6.4,6.4,0,0,1,.26-1.51A57.69,57.69,0,0,1,41.79,33a4.39,4.39,0,0,1,.76-1.13c.3-.34.61-.66.92-1a10.31,10.31,0,0,0,.84-.94,2.12,2.12,0,0,0,.46-1s0,0,0,0,0,0,0,0a4.6,4.6,0,0,1,0-.76,7.29,7.29,0,0,1,.11-.88A.75.75,0,0,1,45,27l.24-.47.21-.44a.83.83,0,0,0,.08-.27.85.85,0,0,0-.29-.55,4.83,4.83,0,0,0-1.47,1,9.55,9.55,0,0,1-2.73,1.91,6.23,6.23,0,0,1-2.31.44H37.46a1.77,1.77,0,0,1-1-.29,3.15,3.15,0,0,1-.91-1,14.57,14.57,0,0,1-1-2.16l-.3-.3c0-.11.11-.22.34-.33a1.66,1.66,0,0,0-.25-.32c-.17-.18-.26-.31-.26-.4s.12-.18.34-.29.34-.21.34-.29-.05-.05-.13-.05a.32.32,0,0,0-.21.05.2.2,0,0,1-.08,0c0-.11.12-.23.18-.36a1.84,1.84,0,0,0,.19-.4q.26.3.42.3a.79.79,0,0,0,.05-.38c.16.14.23.17.21.08s0-.12.08-.12,0,0,0,.06,0,0,.29-.11l-.17-.21c-.11-.05-.16-.09-.14-.12a.24.24,0,0,1,.06-.09l.06,0h-.14v-.63l.12.09.3.08c.22,0,.33,0,.33,0l.09-.17a.21.21,0,0,1,.08-.16c.06-.06,0-.09-.08-.09s0,0,.08-.06.11-.06.08-.06a2.47,2.47,0,0,1,.05-.38c0-.17,0-.3,0-.38.17,0,.3-.11.4-.34l.19-.42a.26.26,0,0,1,.06-.12.15.15,0,0,0,0-.17v-.34q.26-.07.27-.27a1.73,1.73,0,0,1,.11-.4A2.53,2.53,0,0,1,38.26,17c.37-.35.88-.82,1.56-1.41a3.18,3.18,0,0,1,.5-.61c.2-.18.39-.35.59-.5a4.54,4.54,0,0,0,.5-.46.92.92,0,0,0,.25-.49,4.78,4.78,0,0,0,1.1-.79,1.4,1.4,0,0,1,0-.42l1.31-1q.66-.53,1.32-1a8.94,8.94,0,0,1,1.3-.78,4.44,4.44,0,0,1,1.2-.4,4.33,4.33,0,0,0,.46-.31,1.15,1.15,0,0,1,.55-.27h2a2.83,2.83,0,0,1,1.07.19c.32.12.64.25,1,.39a5.68,5.68,0,0,0-.53.42,1.29,1.29,0,0,1-.86.38.34.34,0,0,1-.19,0,.24.24,0,0,0-.15,0,3.86,3.86,0,0,0-1.8.44,8,8,0,0,0-1.68,1.2,23.45,23.45,0,0,0-1.79,1.8c-.63.7-1.32,1.46-2.08,2.27-.28.36-.84,1.14-1.7,2.33s-2.1,3-3.76,5.48c-.08.25-.17.58-.27,1l-.36,1.38c.06.06.09.1.09.13a.48.48,0,0,1-.09.23.68.68,0,0,0-.08.19c.08,0,.15-.1.21-.29s.1-.3.13-.3a4.2,4.2,0,0,1,.46.59c.11,0,.17,0,.17-.08a.14.14,0,0,1-.05-.09.1.1,0,0,0,0-.08h.34a8.55,8.55,0,0,0,1.32-.09,4.7,4.7,0,0,0,1.28-.39,15.5,15.5,0,0,0,1.75-.95c.68-.42,1.58-1,2.7-1.72a3.18,3.18,0,0,0,1-.67,3.4,3.4,0,0,0,.53-.87c.15-.34.33-.76.52-1.25a11.42,11.42,0,0,1,1-1.79,20.57,20.57,0,0,1,1-2,8,8,0,0,1,.73-1l.65-.73A6,6,0,0,0,52,13.31a1.36,1.36,0,0,1,0-.46c0-.25.36-.57.92-1,.22.16.48.34.78.52l1,.61c-.16.11-.25.22-.25.34a.69.69,0,0,0,.21.5.59.59,0,0,1,.21.38,3.94,3.94,0,0,1-.29,1c-.11.37-.21.67-.27.91s-.15.45-.21.65a3.65,3.65,0,0,1-.3.59c-.12.19-.3.44-.52.75a8.48,8.48,0,0,0-1,1.49,4.35,4.35,0,0,0-.29.89c-.06.26-.12.57-.19.92a6,6,0,0,1-.7,1.57q-.07.21-.21.72c-.08.33-.28.91-.58,1.72h0s0,0,0,0c-.12.28-.24.59-.38.93s-.3.71-.46,1.13l.21-.08,1.8-.84.59-.34.38-.13.29-.25.34-.12.29-.17L54.6,25l.55-.34.58-.42.17,0,.8-.46L57,23.6ZM42.46,37.51c0-.06.18-.4.44-1s.56-1.33.86-2.08.8-1.89,1.31-3a3.11,3.11,0,0,0-1,.79c-.49.51-1,1.07-1.55,1.68s-1,1.21-1.47,1.77a5.53,5.53,0,0,0-.74,1.09,1.19,1.19,0,0,0-.69.34A3.16,3.16,0,0,0,39,38a14,14,0,0,0-.67,1.53l-.86,2.19A20,20,0,0,0,36,44.14a4.08,4.08,0,0,0-.42,1.09q.21,1.35.75,1.35a2.28,2.28,0,0,0,.44-.42c.27-.28.57-.61.91-1s.65-.74.94-1.09a7.19,7.19,0,0,0,.57-.74A12.81,12.81,0,0,0,40,42.1c.35-.6.7-1.23,1-1.88s.67-1.26,1-1.79S42.43,37.59,42.46,37.51ZM52.84,9.11l0,.05S52.84,9.14,52.84,9.11Z"/><path class="a" d="M74.8,14.62a1.8,1.8,0,0,1-.08.25c-.06.14-.12.29-.19.44s-.14.29-.21.42a.7.7,0,0,0-.11.27c0,.25-.1.69-.21,1.3s-.28,1.33-.5,2.15c-.11.19-.26.47-.44.84s-.4.75-.65,1.17a10,10,0,0,1-.88,1.24,5.27,5.27,0,0,1-1.14,1v0s-.07-.11-.21-.25a.61.61,0,0,0-.21.42,1.36,1.36,0,0,1-.15-.32c-.07-.18-.13-.27-.19-.27q-.63,0-3.61,2.6a3.21,3.21,0,0,0-1.15.53c-.38.26-.92.61-1.62,1a8.53,8.53,0,0,0-1.72.25,4.82,4.82,0,0,1-.48.92,10,10,0,0,0-.91,2.69,12.07,12.07,0,0,1-.37,1.32,21.38,21.38,0,0,1-1.14,2.71,1.51,1.51,0,0,1,.08.51.22.22,0,0,1,0,.12.39.39,0,0,0,0,.13V36a4.11,4.11,0,0,0-.29-1.22c-.11,0-.21.55-.3,1.64a8,8,0,0,0-.75,1.83c-.17.63-.34,1.2-.5,1.7a5.28,5.28,0,0,1-.61,1.26,1.17,1.17,0,0,1-1,.5c-.53,0-.8-.42-.8-1.26a3.59,3.59,0,0,1,.13-.75,4.71,4.71,0,0,1,.21-.76A8.5,8.5,0,0,0,55,37c.07-.81.2-1.75.4-2.81a4.32,4.32,0,0,1,0-.8q.8-3.36,2-7.08c.78-2.47,1.7-5.11,2.73-7.91a4.92,4.92,0,0,0,.55-1.07c.14-.38.32-1,.54-1.79a4.29,4.29,0,0,0,.51-.8A3.21,3.21,0,0,0,62,13.27s-.05,0-.16,0l-.76.55a12.9,12.9,0,0,1-2.52,1.53l-1.09.44c-.37,0-.55-.55-.55-1.64a3.47,3.47,0,0,1,.21-1.28,3.58,3.58,0,0,1,.53-.92,5,5,0,0,1,.71-.74c.27-.22.52-.46.78-.71,2.38-.81,3.64-1.22,3.78-1.22a.38.38,0,0,1,.17,0,.32.32,0,0,0,.16,0A1.33,1.33,0,0,0,63.84,9a1.3,1.3,0,0,1,.59-.29.26.26,0,0,1,.21.1.25.25,0,0,0,.21.11.84.84,0,0,0,.31-.07,1.08,1.08,0,0,1,.28-.06c.16,0,.51,0,1,.06a17.33,17.33,0,0,1,1.75.26,11.19,11.19,0,0,1,2,.58A6.29,6.29,0,0,1,72,10.79a1.75,1.75,0,0,1,1,.32,3.12,3.12,0,0,1,.8.78,3.73,3.73,0,0,1,.55,1A4.35,4.35,0,0,1,74.55,14a.56.56,0,0,0,.13.27A.64.64,0,0,1,74.8,14.62Zm-3.32-1.47q-.54-.35-.84-.51l-.37-.21c-.09,0-.14,0-.15.07s-.06.06-.15.06l-.38-.09c-.22-.05-.48-.12-.77-.21s-.59-.15-.89-.21a4.68,4.68,0,0,0-.77-.08,1.37,1.37,0,0,0-1,.42c-.28,1.18-.57,2.42-.86,3.72s-.68,2.79-1.16,4.47c-.25.53-.53,1.19-.84,2s-.66,1.78-1,3l.21.25a3.31,3.31,0,0,1,.7-.4c.23-.1.6-.27,1.11-.53.59-.58.88-.95.88-1.09a.76.76,0,0,0-.08-.25l-.13-.08,1-.84c.39-.34.87-.73,1.43-1.18a1.59,1.59,0,0,1,.38-.11c.11,0,.22-.13.33-.35-.33-.17-.5-.32-.5-.46a9.81,9.81,0,0,0,1.68-1.1A.43.43,0,0,1,69,19c0-.05,0-.11.13-.16a1.36,1.36,0,0,0,.29-.32,4.35,4.35,0,0,0,.4-.67,4.62,4.62,0,0,0,.4-1.24c.09-.14.2-.35.34-.63s.28-.58.42-.9a8.33,8.33,0,0,0,.36-1A3.61,3.61,0,0,0,71.48,13.15ZM70.77,19a1.16,1.16,0,0,0-.27,0c-.13,0-.19.05-.19.08h0l.19-.06A.65.65,0,0,1,70.77,19Z"/><path class="a" d="M92.78,13.27a4.49,4.49,0,0,1-.51,2.19A5.17,5.17,0,0,1,91,17a6.21,6.21,0,0,1-1.68,1,14.1,14.1,0,0,1-1.72.59,9,9,0,0,1-1.41.27l-.77.06c-2.1,0-3.48-.25-4.12-.75a8.72,8.72,0,0,0-1.59,4,2.69,2.69,0,0,0,.58,1.17c.2.25.36.46.49.61a1.06,1.06,0,0,0,.4.34,1.46,1.46,0,0,0,.54.14l.88.13.57.36a2.46,2.46,0,0,0,1.32.27,10.15,10.15,0,0,0,4-1.18,14.24,14.24,0,0,0,1.35-.71c.42-.25.79-.49,1.11-.71l.82-.57a1.26,1.26,0,0,1,.42-.23.75.75,0,0,1,.29.08,6.8,6.8,0,0,1-.38,1.43l-.73.84a12.7,12.7,0,0,1-1.77,1.62,13.63,13.63,0,0,1-2.66,1.57,8,8,0,0,1-3.41.72,3,3,0,0,1-1.44-.42,9.56,9.56,0,0,1-1.54-1.05,13.75,13.75,0,0,1-1.4-1.35c-.44-.47-.81-.89-1.12-1.26a7.73,7.73,0,0,1-.86-1.49,8.51,8.51,0,0,1-.54-1.64,14.48,14.48,0,0,1-.28-1.51,11,11,0,0,1-.08-1.11,10.43,10.43,0,0,0,.54-1.85.26.26,0,0,1,.09-.23l.21-.19a2.32,2.32,0,0,0,.29-.4,3.08,3.08,0,0,0,.3-.86.8.8,0,0,0,.37-.36c.06-.12.12-.26.19-.42a3.74,3.74,0,0,1,.3-.52,3.38,3.38,0,0,1,.69-.72l.76-.63c.22-.28.5-.6.84-1s.74-.81,1.21-1.28l1.31-.72a1.29,1.29,0,0,0,.8-1h.33c.09,0,.23.09.44.29a1.3,1.3,0,0,0,.49.34l2.16.33.77.13a5.45,5.45,0,0,1,1.5.61,9,9,0,0,1,1.42,1A6.56,6.56,0,0,1,92.34,12,2.28,2.28,0,0,1,92.78,13.27Zm-5.38-.63c-.34-.33-.59-.5-.75-.5l-1.22.75a7.83,7.83,0,0,0-1.35,1,11.7,11.7,0,0,0-1,1A10.68,10.68,0,0,0,82.26,16c-.27.41-.57.82-.91,1.24.56.17.86.25.88.25a6.65,6.65,0,0,0,2.11-1.05A11,11,0,0,0,86,15.25a5,5,0,0,0,.84-1,3.74,3.74,0,0,0,.38-.84C87.24,13.15,87.32,12.89,87.4,12.64Z"/><path class="a" d="M110.25,22.13c0,.26-.44.86-1.3,1.81a1.23,1.23,0,0,1-.42,0,9.38,9.38,0,0,1-2.23-.42c-.22,0-.5-.31-.84-.75-.11-.17-.22-.34-.31-.51a4.13,4.13,0,0,0-.32-.46c-.14-.06-.28,0-.42.25A19.6,19.6,0,0,1,101.18,27a1.7,1.7,0,0,1-.44.24l-1,.35a9.42,9.42,0,0,1-1.47.51,7.59,7.59,0,0,1-2-.51,9.29,9.29,0,0,0-1.76-2.1c-.68-.59-1-1.06-1-1.43,0-.78,0-1.84.12-3.19a7.73,7.73,0,0,1,.59-2.35A2.8,2.8,0,0,0,94.6,18l.57-.72.21-.77c.08-.3.2-.64.34-1a5.8,5.8,0,0,0,.84-1.39l.06-.33a3,3,0,0,1,.06-.38,8.44,8.44,0,0,0,.76-1,3.74,3.74,0,0,1,.8-2c.05-.14.11-.29.16-.44l.17-.45c.25-.53.51-.79.76-.79s.53.22.75.67a2.64,2.64,0,0,1,.34,1.17,2.36,2.36,0,0,1-.19.68,2.73,2.73,0,0,0-.19.67c0,.05,0,.19,0,.4s0,.51-.06.9a2,2,0,0,1,.29,1c-.31.64-.73,1.68-1.26,3.11a.85.85,0,0,1-.17.06.35.35,0,0,0-.16.1,1.43,1.43,0,0,1,0,1c-.11.28-.26.61-.44,1s-.38.83-.61,1.36a6.84,6.84,0,0,0-.67,2.78s0,.07.15.14a1.58,1.58,0,0,0,.34.19l.35.17c.11.06.17.1.17.13h.25a6.45,6.45,0,0,1,1.26-.8,4.18,4.18,0,0,0,1.26-1,12.09,12.09,0,0,0,1.18-2.14l3-7a1.64,1.64,0,0,0,.36-.06,1.49,1.49,0,0,1,.35-.06c.12,0,.4.19.84.59a2.1,2.1,0,0,0,1.06.58.47.47,0,0,0,.33-.08c.06,0,.11.12.17.27s.11.33.17.51l.14.5a1.23,1.23,0,0,1,.07.36c0,.25-.13,1.08-.38,2.48l-.42,2.39a.59.59,0,0,0,.67.67,11.56,11.56,0,0,1,1.85-.67A5.88,5.88,0,0,1,110.25,22.13ZM109.66,0l.21.13,0,.16-.17.05-.12.33,0,.13-.21.08-.34.21v.13l.13.17-.17.16.09.34L109,2v.12l.5-.08v0l-.59.46-.12.42-.3.46-.25.3-.5.46-.46.34-1.68,1-1.52.68-.29,0h-.71l-.51-.17h-.33L102,6V5.8l-.17-.17L101.6,5l0-.21-.09-.25.09-.17.25-.25V4.07l1.26-1.13.59-.42,1.72-1.26L106.72.5l1.22-.29L109.49,0Z"/><path class="a" d="M69.72,53.59A1.31,1.31,0,0,1,69,54.71a3.36,3.36,0,0,1-1.74.44h-.33a.47.47,0,0,1-.09-.19,1,1,0,0,0-.46-.57,1.2,1.2,0,0,0-.59-.13,7.47,7.47,0,0,0-1.22.11,6.92,6.92,0,0,0-1.21.31l-.76.24c-.34.09-.71.21-1.13.35s-.87.3-1.35.49a9.12,9.12,0,0,0-1.38.65c-.12.58-.27,1.31-.47,2.18s-.43,1.89-.71,3.07a5.67,5.67,0,0,1-.42,1.8l-.92,4.87c-.28,1.18-.52,2.29-.7,3.34s-.37,2-.59,2.78a7.53,7.53,0,0,1-.73,1.89A1.31,1.31,0,0,1,53,77a1.34,1.34,0,0,1-.33,0,1.7,1.7,0,0,1-.34-.15l-.63-.36a4.76,4.76,0,0,1-.61-.44.61.61,0,0,1-.27-.4q0-.84.06-1.47c0-.42.12-.93.23-1.53s.28-1.39.49-2.37.48-2.3.82-4a1,1,0,0,1-.13-.46.87.87,0,0,1,.1-.44c.07-.13.14-.25.19-.36,0,.14.05,0,.13-.3s.19-.8.31-1.4.27-1.28.42-2,.32-1.47.49-2.18.33-1.35.5-1.91a5.4,5.4,0,0,1,.46-1.18,1.28,1.28,0,0,0,0-.29,2.66,2.66,0,0,1,0-.3,3.75,3.75,0,0,1,.32-1.7,1.15,1.15,0,0,1,1.11-.61,6,6,0,0,1,1.11.07,2.87,2.87,0,0,1,.55.14l.31.15a.94.94,0,0,0,.38.06,10,10,0,0,0,2.08-.31c.91-.21,1.83-.44,2.77-.67s1.79-.47,2.54-.68a7.9,7.9,0,0,1,1.39-.31,1.57,1.57,0,0,1,.69.19,4,4,0,0,1,.76.46,2.8,2.8,0,0,1,.61.63A1.2,1.2,0,0,1,69.72,53.59Z"/><path class="a" d="M87.15,66.4a8.48,8.48,0,0,1-.92,3.87,7.66,7.66,0,0,1-.78,2.16,6.67,6.67,0,0,1-1.51,1.78A17.3,17.3,0,0,1,81.42,76c-1,.6-2.29,1.29-3.8,2.08-.06,0-.45.08-1.18.16a4.15,4.15,0,0,1-3.36,1.39,2.67,2.67,0,0,1-1.34-.21l-1.56-1.3h-.13a1.2,1.2,0,0,1-1-.44,2.75,2.75,0,0,1-.51-1,10.11,10.11,0,0,1-.21-1,2,2,0,0,0-.14-.61,1.1,1.1,0,0,0,.21-.5.48.48,0,0,0-.13-.29.55.55,0,0,1-.12-.26,8.38,8.38,0,0,1,.12-1.15,7.3,7.3,0,0,0,.13-1.16,3.49,3.49,0,0,0,.61-.25.68.68,0,0,0,.44-.63,3.25,3.25,0,0,0-.11-.54,3,3,0,0,1-.1-.51,3.94,3.94,0,0,0,.65-.63c.15-.19.31-.42.48-.67s.36-.56.57-.92.5-.84.86-1.43a8.18,8.18,0,0,1,.69-.84c.35-.39.76-.83,1.22-1.3s1-1,1.47-1.49,1-1,1.47-1.41.87-.76,1.22-1a1.92,1.92,0,0,1,.65-.4,1.64,1.64,0,0,1,.36.06,1.18,1.18,0,0,0,.35.07c.23,0,.6-.39,1.14-1.18l.31.21a7.21,7.21,0,0,1,.57.46l1.26.3c.34.16.84.37,1.51.63a2.38,2.38,0,0,1,1.66.56,3.55,3.55,0,0,1,.92,1.47,8.7,8.7,0,0,1,.42,2C87.11,65,87.15,65.7,87.15,66.4Zm-4.7-1A.91.91,0,0,1,82,65.1a.82.82,0,0,0,.13-.46,2.09,2.09,0,0,0-.23-.86c-.16-.32-.34-.49-.57-.49-.39,0-1.27.61-2.64,1.81-.84.73-1.57,1.4-2.17,2s-1.13,1.19-1.59,1.74-.88,1.06-1.24,1.55-.75,1-1.14,1.45a2.27,2.27,0,0,0-.19.42c-.09.25-.2.53-.31.82s-.2.58-.27.84a2.85,2.85,0,0,0-.11.53,1.13,1.13,0,0,0,.38.73,1,1,0,0,0,.71.4,9.8,9.8,0,0,0,5.25-2,7.35,7.35,0,0,0,1.6-.68,3.74,3.74,0,0,0,.48-.75c.21-.39.49-.91.82-1.56a2,2,0,0,0,.19-.6c.07-.33.15-.67.25-1s.21-.7.32-1a1.34,1.34,0,0,1,.29-.55q0-1.42.51-1.59Z"/><path class="a" d="M97.77,76.86l-.25-.21,0-.21-.25-.38-.17-2.64.76-6.93v-1l.12-.34-.25-1.85-.17-.42-.25.3L94.58,68,93,70.48,90.64,74l-1.73,2.23-.8.8H87.9l.34-.55-.17-.13,0-.25.8-1.22.08-.42H88.7l.59-1,.34-.72.08-.5.13-.21.88-2.27L91.1,69,91,68.8l.46-1,0-.13,2.9-5.54L95,60.94l.64-.59,1.34-1h.54l.76-.21H99l.42.21.72,1.17.59,1.39.46,1.55.25,1.94v4.45l-.21,1.26-1.09,4.2-.88,1.38-.42.26-.26-.09L98.4,77Z"/><path class="a" d="M120.37,63.21a1.09,1.09,0,0,0-.17.5c0,.14-.07.61-.12,1.39a32.71,32.71,0,0,1-.63,3.74c-.14.59-.37,1.46-.68,2.62A26,26,0,0,1,117,75.94a6.88,6.88,0,0,1-.29,1c-.14.37-.37.93-.67,1.65a.34.34,0,0,0,0,.15.61.61,0,0,1,0,.15,2.64,2.64,0,0,1-.28,1.2l-.9,1.86a1.16,1.16,0,0,0,0,.28.69.69,0,0,1-.06.25l-.21.38-.45.65a1.26,1.26,0,0,1,0,.46c-.12.22-.26.55-.44,1s-.4,1-.66,1.61l-.08.09s-.07-.07-.12-.21-.1-.21-.13-.21a1,1,0,0,0-.55.33,4.07,4.07,0,0,0-.29.34,1.85,1.85,0,0,1,.13.46c0,.09-.08.16-.21.23a.44.44,0,0,0-.26.32.69.69,0,0,1,.13.38c0,.11-.07.19-.21.25l-.48.17a2.51,2.51,0,0,0-.49.19.3.3,0,0,0-.21.27c0,.11.16.24.47.38,0-.06-.08.14-.24.61a4.66,4.66,0,0,1-1.19,1.65,3.47,3.47,0,0,1,.25.76,4.44,4.44,0,0,0-.55,1.72,11.86,11.86,0,0,1-1.55,0,1.27,1.27,0,0,1-.44-.1,1.56,1.56,0,0,1-.53-.36,2.8,2.8,0,0,1-.44-.63,2.12,2.12,0,0,1-.19-.92.77.77,0,0,1,.13-.34l.13-.29c.08-.67.25-1.7.5-3.07a5.81,5.81,0,0,1,.25-.65c.17-.4.35-.84.55-1.3s.39-.88.58-1.26.33-.57.38-.57a.58.58,0,0,1,.25.09.79.79,0,0,0,.26.08s.06,0,.1-.06a1.29,1.29,0,0,0,.19-.36l.36-.9c.15-.41.36-1,.61-1.7a7,7,0,0,0,.46-1c.17-.42.34-.85.5-1.28s.32-.83.44-1.18a6.83,6.83,0,0,1,.28-.69l.92-3a4.08,4.08,0,0,1,.44-.19,3.63,3.63,0,0,0,.61-.32v-.25a3.42,3.42,0,0,1-.59-.42,1.83,1.83,0,0,0,.38-.61,2.7,2.7,0,0,0,.17-1,.64.64,0,0,0-.13-.42h-.29a32.25,32.25,0,0,1-2.94,2.67,12.11,12.11,0,0,1-2,1.3,4.08,4.08,0,0,1-1.32.46,8.52,8.52,0,0,0-1,.19c-.4-.33-.82-.73-1.29-1.19a18.75,18.75,0,0,1-1.28-1.43,9.31,9.31,0,0,1-1-1.49,3,3,0,0,1-.4-1.43.27.27,0,0,1,.12-.19c.09-.07.13-.13.13-.19a8.11,8.11,0,0,0,.12-.82,6.81,6.81,0,0,0,.05-.78V68.4a1.81,1.81,0,0,0-.05-.36,3.34,3.34,0,0,0,.76-.59,1.62,1.62,0,0,1,0-.46,2.89,2.89,0,0,1,.61-1.28c.4-.6.87-1.27,1.41-2,0,0,.14-.17.33-.44a10.18,10.18,0,0,1,.76-.88,5.74,5.74,0,0,1,1.09-.88,2.44,2.44,0,0,1,1.34-.4,1.32,1.32,0,0,1,1,.61,2,2,0,0,1,.49,1.2,1.27,1.27,0,0,1-.26.67,5.52,5.52,0,0,1-.59.75l-.63.72-.42.5a5.55,5.55,0,0,1-.71,2.17,28.77,28.77,0,0,0-1.34,3.21,2.46,2.46,0,0,1-.25.57,1.23,1.23,0,0,0-.21.69c0,.47.13.71.42.71a2.82,2.82,0,0,0,1.3-.46c.53-.31,1.06-.65,1.59-1s1-.73,1.41-1.07.65-.53.74-.59l.08-.21a1,1,0,0,1,.4-.54l.78-.63.41-.42a.48.48,0,0,1,.34-.17.08.08,0,0,1,.06,0l.07,0a1.88,1.88,0,0,1,.33-.69c.2-.3.41-.6.63-.91s.44-.58.63-.81a3.5,3.5,0,0,0,.34-.45,3.56,3.56,0,0,0,.59-1.28,7.79,7.79,0,0,1,.29-1.07,1.43,1.43,0,0,1,.57-.73,2.6,2.6,0,0,1,1.4-.28.58.58,0,0,1,.21,0l.17,0a.17.17,0,0,1,.13,0l.57.25,1.11.5v.34A1.14,1.14,0,0,1,120.37,63.21Z"/><path class="a" d="M128.6,61.7a3.67,3.67,0,0,1-.84-.42c-.61-.36-1.18-.74-1.7-1.11s-1-.73-1.38-1.05-.74-.57-1-.74a10.91,10.91,0,0,1-.46-2.69c0-.81,0-1.49,0-2.06,0-.13.12-.3.34-.48a7.51,7.51,0,0,1,1.68-.78,8.71,8.71,0,0,1,2-.63l3.4.63c2.18.42,3.32.63,3.4.63a5.21,5.21,0,0,0,1.87-.29,5.13,5.13,0,0,0,1.32-.71,4.36,4.36,0,0,0,.91-.91q.34-.48.69-.9a4.63,4.63,0,0,1,3.4-1.64h.55v.25a1.4,1.4,0,0,0,.31.82,7.74,7.74,0,0,0,1.45,1.49l.34.26-1.1,1.32c-.3.38-.56.69-.75.94a8.73,8.73,0,0,0-3,.84,19.88,19.88,0,0,1-3.69,1.39l-.63,0a1.34,1.34,0,0,1-.25,0H135l-1.68-.38a13.52,13.52,0,0,0-3.91-1.13h-1.76a.71.71,0,0,1-.06.19.6.6,0,0,0-.07.27c0,.48,0,.82,0,1a1.12,1.12,0,0,0,.09.4.57.57,0,0,0,.23.19,2,2,0,0,1,.46.38.36.36,0,0,1,.11.21.35.35,0,0,0,.1.21,3.19,3.19,0,0,0,.4.35,2.81,2.81,0,0,1,.44.53c.06,0,.22.18.5.38s.6.4.95.61l1,.58a2.65,2.65,0,0,0,.69.32l4,1.22,1.18,1.51,1.17.75a8.37,8.37,0,0,1,.84,1q1.39.09,2.73,2.1a5.06,5.06,0,0,1,.76,1.34l.34,2.31.08.13a2.07,2.07,0,0,1,.42,1.22,3.92,3.92,0,0,1-.13,1.09,9.28,9.28,0,0,1-.33.88,1.65,1.65,0,0,0-.21.59c-.2,0-.32,0-.38.13a.79.79,0,0,0,0,.33,1,1,0,0,1,0,.3,6.35,6.35,0,0,1-.59.67,3.9,3.9,0,0,0-.63.67,4.36,4.36,0,0,0-.51-.38c-.25-.17-.44-.15-.58,0a3.59,3.59,0,0,0-.17.47,2.19,2.19,0,0,1-.17.42,4.71,4.71,0,0,0-.71-.17,4.38,4.38,0,0,0-.59,0l-.8.13c-.28,0-.69.11-1.22.16a2.63,2.63,0,0,1-.8,0l-1.38-.21c-.51-.08-1-.19-1.6-.33L131.63,76a11.3,11.3,0,0,1-1.22-.42,1.48,1.48,0,0,1-.59-.34,1,1,0,0,1-.21-.33c-.08-.17-.14-.3-.17-.38s-.56-.28-1.26-.25a2.39,2.39,0,0,1-.12-.42c0-.23-.07-.51-.13-.84l-.63-1.35c-.14-.42-.36-1-.67-1.8a4,4,0,0,1-.76-1.89,5.18,5.18,0,0,1,.09-1.85,9.12,9.12,0,0,1,.67-1.76,15.73,15.73,0,0,1,1-1.6A6.62,6.62,0,0,1,128.6,61.7Zm1.47,6.09a2.35,2.35,0,0,1,.13.63.37.37,0,0,0-.3.17,2.53,2.53,0,0,0-.25.79,1.32,1.32,0,0,0,.13.89,5.8,5.8,0,0,0,2.48,1.13,15.72,15.72,0,0,0,2.31.59,16.59,16.59,0,0,0,1.8.29c.53,0,1,0,1.51,0l1.39.05a1.49,1.49,0,0,0,.29-.13l.59-.25c.2-.11.38-.23.55-.34a.7.7,0,0,0,.29-.29,1.3,1.3,0,0,0,.13-.84,2.1,2.1,0,0,0-.25-.93,10.24,10.24,0,0,0-4.2-3.4,8,8,0,0,0-1.31-1,1.71,1.71,0,0,0-.67.09l-1.22.33a1,1,0,0,0-.42.21q-.28.25-.63.51a2.67,2.67,0,0,1-.67.38.58.58,0,0,1-.42.12q-.68,1-1.05.63Z"/></svg>