<svg xmlns="http://www.w3.org/2000/svg" viewBox="0 0 148.08 108.17"><defs><style>.a{fill:#1d1d1b;}</style></defs><title>ag1</title><path class="a" d="M56.13,2.65q0,2.3-3.06,4.65a17.61,17.61,0,0,1-5.2,2.83L45.32,11l-5.66,7.2a25.07,25.07,0,0,0-3.81,6.89v.31H36s.28-.06.68-.16A10.71,10.71,0,0,0,41,22.89h.15c0,.54-1,1.36-2.83,2.46q-3.1,1.78-3.55,2.6H32.46c-.09-.28-.4-.43-.92-.43h-3c-.26,0-.39-.16-.39-.47s.05-.29.16-.29h2.75l1-.63v0c0-.1-.4-.26-1.21-.5a17.56,17.56,0,0,1-3.71-1.82q-7.62,5.93-16,5.93c-.31,0-.76,0-1.37-.05l-1.34,0a7.38,7.38,0,0,0,3.71,6.61,14.41,14.41,0,0,0,7.69,1.92,19.35,19.35,0,0,0,6-.88,8.92,8.92,0,0,0,4.88-3.36A3.36,3.36,0,0,0,31.21,32a3.77,3.77,0,0,0-.67-2h.24c.29,0,.54.31.76.93a3.81,3.81,0,0,1,.29,1.31q0,2.47-3.55,4.43a14,14,0,0,1-5.86,1.8c-2,.1-3.14.15-3.43.15a14.28,14.28,0,0,1-6.75-1.77,7.64,7.64,0,0,1-4.08-5.39l-.33-1.89-.14-.1a9.46,9.46,0,0,1-5.54-2.89A8.44,8.44,0,0,1,0,20.71V19.22a6.6,6.6,0,0,1,.39-1.56A11.91,11.91,0,0,1,5.62,11.2a17.36,17.36,0,0,1,9.6-2.71,16.8,16.8,0,0,1,8.16,2.24h.14a2.42,2.42,0,0,0,.31-.46,6,6,0,0,1,1.33-1.64A5.22,5.22,0,0,1,26.23,8l.43-.14V7.81a4.43,4.43,0,0,0-.29-1.26,4.24,4.24,0,0,1-.28-1.28,4.84,4.84,0,0,1,1.7-3.94A6.18,6.18,0,0,1,31.93,0a6.76,6.76,0,0,1,3.12.7,2.69,2.69,0,0,1,1.72,2.44h-.14Q35.8.53,32.14.53a5.81,5.81,0,0,0-3.82,1.21,4.47,4.47,0,0,0-1.56,3.61,3.3,3.3,0,0,0,.68,2.42,7.1,7.1,0,0,1,4.24,2.36c.17.21.43.5.78.88s1.7.62,3.78.62c.54-.67,1.83-2,3.85-4Q47.46.53,53.18.53h1.21a1.52,1.52,0,0,1,1.31.68A2.36,2.36,0,0,1,56.13,2.65Zm-33,9v-.19A14.43,14.43,0,0,0,15.42,9.7,18.87,18.87,0,0,0,5.35,12.37Q.25,15.51.25,20.86q0,4.93,4.92,7.3a6.11,6.11,0,0,0,2.42.72q.3,0,.63-1.38a7.87,7.87,0,0,0,.29-1.76,1.81,1.81,0,0,0-.41-.82c-.34-.5-.53-.77-.55-.82a7.23,7.23,0,0,1-.68-3.28A7.91,7.91,0,0,1,9.3,15a8,8,0,0,1,5.83-2.41q5.07,0,6,4.6h.29a4.21,4.21,0,0,0,.49-.05l.48,0V14.19A10.49,10.49,0,0,1,23.09,11.63Zm-2.64,5.51a2.73,2.73,0,0,0-1.71-2.5A6.69,6.69,0,0,0,15.61,14a7.94,7.94,0,0,0-4.11,1.17,7.33,7.33,0,0,0-2.89,3.09,6.16,6.16,0,0,0-.78,2.5,6.11,6.11,0,0,0,2.81,1.89,17.77,17.77,0,0,1,4.72-3.38c.19-.1,1.13-.46,2.81-1.07C19.69,17.6,20.45,17.27,20.45,17.14Zm-10.34,6.1L7.83,21.39v.68a5.22,5.22,0,0,0,.33,1.6c.25.76.52,1.14.82,1.14A18.74,18.74,0,0,1,10.11,23.24Zm7.1,5h-1A10.85,10.85,0,0,1,9,26H8.9c-.12,0-.25.37-.37,1.09a8.52,8.52,0,0,0-.16,1.37V29a6.08,6.08,0,0,0,1.39.14h1.66A14.59,14.59,0,0,0,17.21,28.24Zm-.39-.72a6.91,6.91,0,0,1-2.92-.77,4.32,4.32,0,0,1-2-2.16,2.31,2.31,0,0,1-.25-.92c-.1-.24-.44-.35-1-.35-.94.94-1.41,1.57-1.41,1.88s.65.89,2,1.54a7.28,7.28,0,0,0,2.58.93l1.11,0,1.11,0,.29,0,.28,0Zm-4.49-6a7.64,7.64,0,0,0-1.21,1.25h.57Zm13.76,1.25a30,30,0,0,0-2.32-2.85h-.14a14.85,14.85,0,0,1-3.33,2.38,13,13,0,0,1-5.7,1.79,5.71,5.71,0,0,1-1.26-.22,5.57,5.57,0,0,0-1.26-.21.22.22,0,0,0-.14.1,3,3,0,0,0,1.92,2.6,6.91,6.91,0,0,0,3.35.86c1.87,0,4.1-.82,6.7-2.48.28-.17.67-.44,1.17-.8C25.75,23.38,26.09,23,26.09,22.78Zm-13.62.11v-.43a.38.38,0,0,0-.43.43Zm.35-1.58,0,0c0-.09,0-.13-.09-.13h0s-.06,0-.08.13v0c0,.05,0,.08.08.08h.05S12.8,21.35,12.82,21.31Zm7.77-3.2a11.62,11.62,0,0,0-4,1,10.6,10.6,0,0,0-3.59,2l.27,0c.71,0,1.15.59,1.33,1.77A.81.81,0,0,0,15,23a6.22,6.22,0,0,0,3.94-1.19A4.35,4.35,0,0,0,20.59,18.11Zm-2.85,10q0-.09-.12-.09h0c-.09,0-.13,0-.13.06l0,.09.11,0a.33.33,0,0,0,.14,0Zm5.64-8.86-.68-1.6h-.08c-.78,0-1.26.15-1.46.45a6.41,6.41,0,0,1-1,3.32h.14c.82-.44,1.37-.75,1.64-.94A10.32,10.32,0,0,0,23.38,19.22Zm1.7-4.15v-.49c0-1.22-.26-1.82-.78-1.82a10.74,10.74,0,0,0-.57,4.18c.63,0,1-.16,1.21-.49A4.29,4.29,0,0,0,25.08,15.07Zm-.53,2.46h-.68l0,.09A2.54,2.54,0,0,0,24,18a1.5,1.5,0,0,1,.05.36h.11Zm6.23.54a8.07,8.07,0,0,0-3.81-.6h-1a2.59,2.59,0,0,0-.78.06,1.61,1.61,0,0,0-.76,1.54A4.15,4.15,0,0,0,25.32,21c.61.88,1.09,1.31,1.44,1.31Zm2.71-3.3a2.26,2.26,0,0,0-.25-.58l-1-1.68a5.08,5.08,0,0,0-1.44-1.35,5,5,0,0,0-2.66-.72,5,5,0,0,0-2,.41,2.15,2.15,0,0,0-1.4,1.41,6.34,6.34,0,0,1,.78,2.81,7,7,0,0,1-.07.86,7.14,7.14,0,0,0-.07.87l3,.24q1.83.15,3,.15h.21Zm-6-5.6c-.12-.39-.29-.58-.49-.58a2.09,2.09,0,0,0-2,1.11A5.73,5.73,0,0,1,27.54,9.17Zm6.52,10.68v-.92a2.41,2.41,0,0,0-1.35-.49s-1.63,1.6-4.78,4.8v.08a9.55,9.55,0,0,0,4.78,1.78A12.74,12.74,0,0,0,34.06,19.85Zm-2.13-9v-.14a4.88,4.88,0,0,0-3.67-2.14.6.6,0,0,1-.18,0A6.85,6.85,0,0,0,29.93,10,5.9,5.9,0,0,0,31.93,10.87ZM29,24.59v0c0-.07,0-.1-.08-.1h0c-.06,0-.09,0-.09.1l0,0c0,.05.05.08.09.08h0C29,24.66,29,24.63,29,24.59Zm.25.14v0c0-.07-.05-.1-.11-.1h0s-.07,0-.08.1v0c0,.06,0,.08.08.08h0S29.27,24.79,29.29,24.73Zm.36.1v0c0-.08,0-.12-.08-.12h0c-.05,0-.08,0-.08.12v.07c0,.1,0,.16.1.16A.2.2,0,0,0,29.65,24.83Zm.37.09a.16.16,0,0,0-.1,0h0c-.05,0-.08,0-.08,0a.64.64,0,0,0,.1.14A.43.43,0,0,0,30,24.92Zm.41.26v-.06c0-.07,0-.1-.08-.1h0s-.08,0-.08.1v.06a.14.14,0,0,0,.08.09h0C30.41,25.25,30.43,25.22,30.43,25.18Zm.5.09a.13.13,0,0,0-.11-.07l0,.07.08.08C30.91,25.32,30.93,25.29,30.93,25.27Zm.53.14a.09.09,0,0,0-.1-.1s0,0,0,.08v0s0,0,0,0A.23.23,0,0,0,31.46,25.41Zm.61.08a.09.09,0,0,0-.08,0l-.06,0a.27.27,0,0,0,.1.14S32.07,25.56,32.07,25.49ZM35.85,12a8,8,0,0,1-1.43-.2A7.69,7.69,0,0,0,33,11.63h-.15l-.14.14a.86.86,0,0,0-.39-.33h-.1a2.89,2.89,0,0,0,.63.93v-.6L34,14.25a5.52,5.52,0,0,0,.68-.63A6.61,6.61,0,0,1,35.85,12Zm-2.75.51v0c0-.08,0-.12-.08-.12h0s-.07,0-.09.12v0q0,.12.09.12h0S33.09,12.61,33.1,12.53Zm1,5.68V16.8l-.92.92Zm.15,3.55v-.29a7.55,7.55,0,0,1-.21.74,2.39,2.39,0,0,0-.18.82l0,.1,0,.19Q34.21,23.17,34.21,21.76Zm.18-.92v-.07a.37.37,0,0,0-.08-.2.36.36,0,0,0-.06.2v.09a.42.42,0,0,0,.06.28A.84.84,0,0,0,34.39,20.84ZM39.85,12H38.17l-3.53,4.24A6.88,6.88,0,0,0,35,18.4c.08.21.43.49,1.06.82Zm-4,7.73v-.14q-.1-.21-.78-.39v0l0,.08-.06.37q0,.42-.21,1.74a5.55,5.55,0,0,0,0,.57v.35Zm.78,6.13h-.15c-.68,0-1.07.25-1.17.74h0A1.48,1.48,0,0,0,36.63,25.88ZM46,3.81a18.28,18.28,0,0,0-4.35,4.07c.34-.28.86-.67,1.54-1.19q-1.62,1.59-4.78,4.94h.68a1.68,1.68,0,0,0,1.35-.47c.79-1.1,2-2.72,3.61-4.88h-.18a.52.52,0,0,0-.21,0A12.2,12.2,0,0,0,46,3.81Zm-2.65,7.76c0-.13,0-.19,0-.19s-.24.12-.24.35c0,0,0,0,0,0S43.35,11.7,43.35,11.57Zm.31-5.25c-.15.11-.31.23-.47.37A1.07,1.07,0,0,1,43.66,6.32ZM55.74,2.65q0-1.83-2.46-1.83a10.45,10.45,0,0,0-3.18.49A4.8,4.8,0,0,0,47.5,3c-.13.2-.33.47-.6.82a19.54,19.54,0,0,0,2.54-1.57,5,5,0,0,1,2.88-1l.14,0,.14,0,.25.29c-1.87,0-3,.29-3.24.86h.24q-1.32.45-3.26,3.26L44,10c-.12.2-.3.51-.53.92h.39a87.24,87.24,0,0,1,9.66-8.94V1.78c0-.17-.08-.26-.23-.24l1.09-.19q-1.62,1.44-5.07,5.17c-.72.79-1.8,2-3.24,3.61h.14a10.4,10.4,0,0,0,3.55-1.58,36.38,36.38,0,0,0,3.47-2.17Q55.74,4.55,55.74,2.65ZM45.69,5.56a8.38,8.38,0,0,0,.72-1C46.23,4.85,46,5.17,45.69,5.56ZM50.24,2.4v0s0,0,0,0a.21.21,0,0,1-.1-.06c0-.07,0-.1,0-.1h0C50.22,2.33,50.24,2.36,50.24,2.4Zm.39-.16v0a.12.12,0,0,1-.06.08l-.08-.1a.21.21,0,0,1,0-.15C50.6,2.11,50.63,2.15,50.63,2.24Zm1-.31L51.39,2l-.33.12a.23.23,0,0,1-.14,0A.46.46,0,0,0,51.14,2a.39.39,0,0,1,.17-.07Zm.65-.19c0,.07-.07.12-.22.15s-.21,0-.21-.15.06-.06.19-.06h.08A.27.27,0,0,1,52.25,1.74Z"/><path class="a" d="M60.27,22.58c-.45.47-1.16,1.15-2.11,2l-1.55,1.29c-1.9,1.69-3.36,2.53-4.36,2.53A2.9,2.9,0,0,1,50.8,28c-.58-.34-.87-.73-.87-1.15a6.1,6.1,0,0,1,2-3.73q1.54-1.73,2.93-3.35v-.65c-.1,0-.13.08-.1.25s-.08.43-.35.75c-.86,1-1.93,2.26-3.21,3.68a19.29,19.29,0,0,1-4.92,0c-.09.53-1.3,2-3.63,4.48a12.66,12.66,0,0,1-2.09.16h-.4a.51.51,0,0,0,.21-.39.54.54,0,0,0,0-.19.59.59,0,0,1-.05-.19q0-1.12,4.73-7a2.12,2.12,0,0,0,.4-1.38l-.72-.12a11.94,11.94,0,0,0-2.3,1.6l-2.11,1.82-.66.57h-.11C42.88,19.73,44.75,18,45.08,18l-.12.17.08.28a5.37,5.37,0,0,0,.71-.08,4.06,4.06,0,0,1,.71-.08,3.12,3.12,0,0,1,.64.08,4.09,4.09,0,0,0,.63.08c.22,0,.33-.2.33-.61s-.27-.61-.82-.61a2.49,2.49,0,0,0-.92.25,2.6,2.6,0,0,1-.91.24A4.18,4.18,0,0,1,47.52,17c.95,0,1.43.55,1.43,1.66q0,1.15-2.09,4.08v.21l.33.12a11.59,11.59,0,0,0,5.09-.68,14.47,14.47,0,0,0,1.36-1.66,2.29,2.29,0,0,0,.79-1.06,1.16,1.16,0,0,1,.25-.71c.16-.21.25-.22.25,0,1.21-.47,1.67-.88,1.36-1.22,0-.3-.24-.45-.71-.45a2.15,2.15,0,0,0-.67.17,2.26,2.26,0,0,1-.66.16A2.6,2.6,0,0,1,55.91,17c.84,0,1.27.72,1.27,2.16q0,1.21-2.21,3.85c-1.47,1.76-2.2,2.89-2.2,3.39s.18.58.54.58c.83,0,2-.59,3.61-1.78,1.12-.9,2.24-1.82,3.35-2.74Zm-6.35,4.93h-.21a9.37,9.37,0,0,0-1.13.32v.4C53.47,28.23,53.92,28,53.92,27.51Z"/><path class="a" d="M77.05,16.8,68.21,28.56v.33h.45q1.45-.57,7.66-5.46h.12A29.56,29.56,0,0,1,67.32,30q-1.54,2.41-5,7l-3.24,3.89a33,33,0,0,1-3.42,3.56q-1.34,1.11-7.62,5a7.47,7.47,0,0,1-4,1.17c-1.62,0-2.44-.59-2.44-1.78A4.48,4.48,0,0,1,43,45.67c.55-.61,1.4-1.46,2.56-2.55l5.88-4.6c.58-.48,1.56-1.25,2.93-2.29L58,34.07,65,29.78c.4-.77.63-1.18.68-1.24a2.33,2.33,0,0,1,.91-1l1.15-1.75v-.33h-.26a11.44,11.44,0,0,1-3.09,2.36.25.25,0,0,0-.28-.28,4.12,4.12,0,0,0-1.1.23,4.58,4.58,0,0,1-1.11.22,4.24,4.24,0,0,1-.66-.08,3.64,3.64,0,0,0-.67-.09c0,.63.44.94,1.33.94l.44,0a3.91,3.91,0,0,1,.43,0,2,2,0,0,1-1.26.32c-1.44,0-2.16-.86-2.16-2.6q0-4.5,4.8-7.54,3.57-2.28,6.07-2.28a2.83,2.83,0,0,1,1.06.17,8.5,8.5,0,0,0-2.81.61c-1.33.48-2,1-2,1.59a6.74,6.74,0,0,0,1.94-.43,6.45,6.45,0,0,1,1.93-.44,2.24,2.24,0,0,1,.63.13,2.36,2.36,0,0,0,.64.13,1.78,1.78,0,0,1,.09-.47,1.76,1.76,0,0,0,.09-.44.59.59,0,0,0-.35-.52c.49,0,.73.39.73,1.17,0,.17,0,.43,0,.78s0,.6,0,.77c.55,0,1-.38,1.45-1.13A6.52,6.52,0,0,1,74.68,17a16.09,16.09,0,0,1,1.93-.16Zm-27.33,31v-.12c-1.5-.41-2.25-1.22-2.25-2.44a5.45,5.45,0,0,1,.55-2,5.27,5.27,0,0,0,.55-1.86,2.5,2.5,0,0,0-1,.67,20.41,20.41,0,0,0-2.77,2.86,6.06,6.06,0,0,0-1.38,3.66v.87q.29.72,1.38.72A4.71,4.71,0,0,0,47,49.61C48.82,48.64,49.72,48.05,49.72,47.83ZM63.86,31.37h-.33l-9.45,5.91a12.75,12.75,0,0,0-3.61,3.42,7.87,7.87,0,0,0-1.68,4.57c0,1.14.47,1.71,1.42,1.71a1.66,1.66,0,0,0,.94-.16,41,41,0,0,0,3.05-3.09c.42-.41,1-1,1.83-1.93L63.69,32A1,1,0,0,0,63.86,31.37Zm7.78-12.09c0-.48-.37-.73-1.1-.73q-1.74,0-5.07,3.14c-2.22,2.1-3.33,3.72-3.33,4.88a1.85,1.85,0,0,0,0,.28.56.56,0,0,1,0,.26.59.59,0,0,0,.45.19h.44q2,0,5.28-3C70.54,22.26,71.64,20.59,71.64,19.28Z"/><path class="a" d="M95.38,22.54l-2.81,2.81a15.07,15.07,0,0,1-3.21,2.48h-.17c.11-.06.17-.1.17-.14a.58.58,0,0,0,0-.14,1,1,0,0,1,0-.16,5.19,5.19,0,0,0-1.48.28c-.72.22-1.08.46-1.08.73h1.46a4,4,0,0,1-1.29.26,1.54,1.54,0,0,1-1-.5c-.36-.33-.61-.49-.77-.49a7.58,7.58,0,0,0-.85.08,5.74,5.74,0,0,1-.86.08,3.78,3.78,0,0,1-2.48-.72,1,1,0,0,0-.61-.21c-.25,0-.52.2-.82.61L63.64,48.81C62.77,50,62,50.57,61.32,50.57s-1-.38-1-1.15A5.91,5.91,0,0,1,61.58,46L81.69,18.46a2.29,2.29,0,0,0-.36.05,2.21,2.21,0,0,1-.37,0,63.21,63.21,0,0,0,5-4.73l2.65-3.26A13.45,13.45,0,0,1,89.8,9.3,18.57,18.57,0,0,1,91.72,9v.16l-29,38.53-.44.87q0,.13.12.45a.34.34,0,0,0,.28.16c.23,0,.54-.26.93-.77L79.82,26.78a10.58,10.58,0,0,0,.49-1.31,1.87,1.87,0,0,1,.89-1.13,25.54,25.54,0,0,0,3-2.67A14.24,14.24,0,0,1,87,19.28l.16.16h.28a8.79,8.79,0,0,1,3.87-1.31v-.61c0-.19-.41-.28-1.22-.28a2,2,0,0,1,1.15-.33c.81,0,1.22.7,1.22,2.09,0,.87-.76,2.15-2.29,3.82s-2.28,2.79-2.28,3.35a.86.86,0,0,0,.16.61,1.77,1.77,0,0,1,.34,0l.32,0a3.1,3.1,0,0,0,1.76-.61,45.41,45.41,0,0,0,4.8-3.7ZM77.87,21.48c-.17.21-.3.32-.37.33l-.07,0,.28-.28Zm2.2-2-.86.89H79l.87-.89Zm10.06-.11c0-.25-.2-.38-.61-.38q-2.88,0-8.58,6.85a1.07,1.07,0,0,0-.14.65c0,.63.52.94,1.55.94s2.18-.77,3.26-2.32c.17-.25.44-.62.82-1.1C88.89,21.25,90.13,19.7,90.13,19.33Z"/><path class="a" d="M106.86,23.26A43.53,43.53,0,0,1,103,26.85a8.16,8.16,0,0,1-4.81,1.88A4.49,4.49,0,0,1,96,28.09c-1-.56-1.47-1.08-1.47-1.57a16.44,16.44,0,0,1,.16-3.09l.66-1.22.35-.73a9.38,9.38,0,0,1,3.48-3.55,8.86,8.86,0,0,1,4.68-1.58h1a1.28,1.28,0,0,1,1,.75,2.51,2.51,0,0,1,.33,1.25q0,2.55-3.24,4.34a30,30,0,0,1-5.48,2.07,3.87,3.87,0,0,0-.28,1.43c0,.82.51,1.22,1.54,1.22A8.38,8.38,0,0,0,103,26.05q.89-.57,3.68-2.79Zm-2.6-3.86c0-.08,0-.18,0-.3a1.57,1.57,0,0,1,0-.27,1.09,1.09,0,0,0-.67-.16,1.94,1.94,0,0,0-1.11.28,13,13,0,0,0-4.12,4.31v.38a7.21,7.21,0,0,0,3.58-1.45Q104.26,20.65,104.26,19.4Zm-2.44,8v-.33a5.42,5.42,0,0,0-1.75.42l-1.76.62v.32A8.26,8.26,0,0,0,101.82,27.41ZM105,17.52a1.23,1.23,0,0,0-.52-.89h-.7a4.83,4.83,0,0,0-2.48.92c-1,.65-1.55,1.3-1.55,1.94l.33,0a15.74,15.74,0,0,1,4.75-1.31A.91.91,0,0,0,105,17.52Z"/><path class="a" d="M124.72,23.15a40.07,40.07,0,0,1-4.24,3.79q-2.3,1.95-3.54,1.95c-1.17,0-1.76-.81-1.76-2.44a5.56,5.56,0,0,1,.14-1,4.91,4.91,0,0,0,.14-1h-.28c-.73.62-1.82,1.57-3.25,2.84A4.37,4.37,0,0,1,109,28.61a2.81,2.81,0,0,1-1.62-.56,1.79,1.79,0,0,1-.87-1.43,5.93,5.93,0,0,1,1.41-3,6.58,6.58,0,0,0,1.4-2.49h-.16l-2.65,2.2h-.16a26.69,26.69,0,0,1,2.93-3.26q0,.33.33.33h.11l1.32-.84c.56-.44.84-.85.84-1.24h-.56a3.36,3.36,0,0,1,2.88-1.18h.66c-.19.33-.34.57-.45.73a.56.56,0,0,0,.45.61q0,.16-2.72,3.43t-2.7,4.35c0,.41.19.61.56.61a3,3,0,0,0,1.55-.44,30.7,30.7,0,0,0,5-3.75,50.94,50.94,0,0,0,4.06-4.81,1,1,0,0,1,.86-.44h1.79a.6.6,0,0,1-.17.44v.33a1.25,1.25,0,0,1,.78.33l-4.69,5.95a3.53,3.53,0,0,0-.94,1.95.85.85,0,0,0,.16.44H119a5.32,5.32,0,0,0,3-1.43l2.63-2.27ZM112,26.69h-.33A14,14,0,0,1,108.71,28v.33a5.14,5.14,0,0,0,2-.45C111.54,27.54,112,27.14,112,26.69Zm-1-8a.18.18,0,0,1-.12.11s0,0,0-.11,0,0,0,0h0Zm11.2-3.64q-.93.53-4.89-.42a3.55,3.55,0,0,1-1.62-.77l.07-.12.16.05c.11.14.21.19.31.14l1.29.33a4.24,4.24,0,0,0,1.33-.1,12,12,0,0,1,3-.68.63.63,0,0,1,.64.45C122.72,14.51,122.63,14.88,122.14,15.08Zm-3.49,12.75a7.77,7.77,0,0,0-1.12.12,7.88,7.88,0,0,1-1.13.12q0,.54.78.54Q118.65,28.61,118.65,27.83Z"/><path class="a" d="M94.32,61.53l-.09-.05h-.07c-.24-.22-.35-.37-.33-.44a7.81,7.81,0,0,0-6.19-2.65.39.39,0,0,0-.42.28,10.07,10.07,0,0,1-3.82,1.15,12.44,12.44,0,0,0-1.31.16c-1.27.33-3.07,1.84-5.42,4.53q-8.26,12-9.89,13.87a13.07,13.07,0,0,1,.73,4.29,13.9,13.9,0,0,1-4.58,10.46A15.09,15.09,0,0,1,52.2,97.48q-5.85,0-8.9-3.49t-2.74-9.28A8.5,8.5,0,0,0,39.45,84a8,8,0,0,1-4.19-7q0-5.45,5.79-8.6a19.74,19.74,0,0,1,10.73-2.44q2-1.15,5.56-3.52c.37-.31.94-.76,1.71-1.36q2.93-2.1,8.67-2.9l7.9-1a18.75,18.75,0,0,1,2.55-.24l2.7,0h2.67c.53,0,1.32.06,2.37.16s1.83.15,2.34.15c.13,0,.18,0,.17.16C92.35,58.26,94.32,59.65,94.32,61.53ZM50.56,66.9h-.93a17.13,17.13,0,0,0-9.07,2.55q-4.86,3-4.86,7.55a7.2,7.2,0,0,0,4.69,7h.17c.14-.66.28-1.65.44-3a9,9,0,0,1-1-4A7.77,7.77,0,0,1,42,72a9.93,9.93,0,0,1,4.57-3.14l2.13-.68A4.9,4.9,0,0,0,50.56,66.9ZM47,70.32a8,8,0,0,0-4.3,2.81,7.25,7.25,0,0,0-1.88,4.69,6.51,6.51,0,0,0,.44,2.2.42.42,0,0,0,.17-.33,27.4,27.4,0,0,0,1-2.93c0-.17,0-.43-.06-.79s-.06-.63-.06-.8h.12a2.6,2.6,0,0,0,.28,1l.17-.09A24,24,0,0,1,47,70.32Zm19.6,12V80.7a2.34,2.34,0,0,0-.49-1.62l0,.07H66q-7.13,6.61-18.66,6.61a34.77,34.77,0,0,1-6.07-.86.24.24,0,0,0-.19-.07H41c0,3.79.9,6.74,2.7,8.83Q46.53,97,52.11,97a13.85,13.85,0,0,0,10.23-4.36A14.27,14.27,0,0,0,66.62,82.34ZM49.23,85.15a12.6,12.6,0,0,1-7.78-3.51l-.17.42c-.08.45-.17,1.14-.28,2.06.13.22.74.46,1.85.71a11.89,11.89,0,0,0,2.14.32Zm7.94-2.36h0a14.56,14.56,0,0,0-2.71.38,14,14,0,0,1-2.71.39q-4.26,0-5.25-1.92a19,19,0,0,0-.77-1.78A18.77,18.77,0,0,0,43,77.37a3.39,3.39,0,0,0-.77,1.44,6.47,6.47,0,0,0-.45,1.7,2.39,2.39,0,0,0,.77,1.29c1.74,1.88,4.52,2.81,8.34,2.81A11.85,11.85,0,0,0,57.17,82.79Zm.17-9.28v-.22A3.09,3.09,0,0,0,55.93,71a7.45,7.45,0,0,0-4.83-1.41,6.42,6.42,0,0,0-2.79.45,11.91,11.91,0,0,0-3.07,3.29c-1.36,1.85-2,3.11-2,3.76a4,4,0,0,0,3,1.67,2.09,2.09,0,0,0,.67-.17,2.31,2.31,0,0,1,.67-.16,1,1,0,0,1,.62.31,1.1,1.1,0,0,0,.69.3c.2,0,.59-.39,1.15-1.17a17.85,17.85,0,0,1,1.12-1.5A11.32,11.32,0,0,1,57.34,73.51ZM45.69,79.15v0c0-.08,0-.12-.1-.12h0a.13.13,0,0,0-.09.12v0l.09.1h0Zm.35.1-.12,0,0,0,0,.11Zm18.38-2.93-.9-.87a17.67,17.67,0,0,0-2.36,2.2c-.11,0-.17-.12-.17-.28s.64-1,1.93-2.2V75a4.81,4.81,0,0,0-2.65-.9,18,18,0,0,1-4.9,4.81,12.19,12.19,0,0,1-6.35,2v1.31l-.28-.16V80.75a15,15,0,0,0-2.54-.61q0,3.09,5.51,3.09a15.17,15.17,0,0,0,7.22-1.94A14.23,14.23,0,0,0,64.42,76.32ZM48.85,79.86a.84.84,0,0,1-.07-.17q-.09.54-.09.33v.12C48.8,80.11,48.85,80,48.85,79.86Zm6-1.15a21.08,21.08,0,0,1-5.46,1,.58.58,0,0,0-.21.5C52.31,80.19,54.2,79.69,54.85,78.71ZM57.45,74a8.4,8.4,0,0,0-4.57,1.48A8.16,8.16,0,0,0,49.67,79h.21a16.24,16.24,0,0,0,4.81-1A3.83,3.83,0,0,0,57.45,74ZM60.34,72a2,2,0,0,0-1.15-2,7.17,7.17,0,0,1-2.11-1.36c-.22-.23-.57-.56-1.06-1-.71-.52-2.11-.77-4.19-.77-.45,0-1,.4-1.71,1.21q7.25.65,8.11,5.3c.2,0,.51,0,.91,0s.71.05.92.05a.3.3,0,0,0,.11-.26c0-.13-.06-.18-.18-.17A1.26,1.26,0,0,0,60.34,72Zm-3.87-8.34a15.65,15.65,0,0,0-2,1,10.38,10.38,0,0,0-1.74,1.15c.67.12,1.66.37,3,.72A8.86,8.86,0,0,1,56.47,63.69ZM80.75,60l-.28-.16c-.33,0-1.41-.1-3.23-.31A65.1,65.1,0,0,0,70.65,59q-4.53,0-12,3.43c-1.28.59-1.92,1.93-1.92,4a.69.69,0,0,0,.19.49A16.33,16.33,0,0,0,58.33,68,16.18,16.18,0,0,0,59.7,69,1.57,1.57,0,0,0,60,69l.51,0A12.77,12.77,0,0,0,66,67.55q3.47-1.64,3.47-3.86c0-1.13-.72-1.69-2.16-1.69a10,10,0,0,0-3.32.54l-.45.14a.68.68,0,0,1-.19.11h-.07a8.35,8.35,0,0,1,3.78-1c1.79,0,2.69.59,2.69,1.76a3.32,3.32,0,0,1-.16,1.06,11.8,11.8,0,0,0,2.08-2.65h.07c.14,0,.22.11.22.33A5.15,5.15,0,0,1,71,64a17.09,17.09,0,0,1-4.31,4.67,10.69,10.69,0,0,1-6.08,1.73v.45q0,.3.06.9c0,.4.06.69.06.88A33.18,33.18,0,0,1,68.38,71,18.56,18.56,0,0,0,70,69a42.8,42.8,0,0,1,4-4.5,17,17,0,0,1,4.6-3.61c.14,0,.36-.11.65-.18A13.31,13.31,0,0,0,80.75,60ZM57.62,82.69v0c0-.08,0-.13-.1-.14h0a.14.14,0,0,0-.09.14v0l.09.1h0ZM58,76.06H57.9v.09ZM61,60.59a.66.66,0,0,0-.61.28Zm-.33,4-.09.09h0l-.09-.09v-.07q0-.12.09-.12h0a.14.14,0,0,1,.09.12ZM68,71.47h-.82a18.27,18.27,0,0,0-3.68.51c-1.93.41-2.9.88-2.9,1.43,0,.19.14.32.42.4l.8.14c.18,0,.77.31,1.75.77a14.49,14.49,0,0,1,3.22-1.64,1.28,1.28,0,0,0,.77-.72h-.4a2.6,2.6,0,0,0-1.1.35,3.1,3.1,0,0,1-1.1.37c0-.34.43-.68,1.29-1C66.77,71.87,67.36,71.67,68,71.47Zm-6.68-7.32-.09.1h0l-.09-.1v0c0-.1.06-.14.09-.14h0a.19.19,0,0,1,.11.11Zm.17-3.75a.19.19,0,0,0-.1-.14h0a.24.24,0,0,0-.1.14v.05c0,.09,0,.14.1.14h0s.08-.06.1-.14Zm.61-.25a1.94,1.94,0,0,0-.45.11A1.14,1.14,0,0,0,62.05,60.15Zm-.17,3.56-.09.09h0l-.09-.09v-.05a.19.19,0,0,1,.09-.14h0a.15.15,0,0,1,.09.14Zm.43-.28-.1.09h0l-.1-.09v0a.17.17,0,0,1,.1-.14h0a.16.16,0,0,1,.1.14Zm.21-3.52-.05,0H62.4l-.07,0a1.14,1.14,0,0,1,.09.19Zm.07,3.35-.1.1h0l-.09-.1v0c0-.08,0-.13.09-.14h0a.22.22,0,0,1,.1.14Zm.35-.25,0,.07h-.1l-.07,0,.14-.14,0,.09Zm0-3.17v-.05l0,0h0l0,0v0l0,.12Zm.56-.12v0c0-.08,0-.12-.1-.12h0a.16.16,0,0,0-.12.12v0l.1.1h0Zm3,14.14v-.19A5.94,5.94,0,0,0,64.13,75v.16a3.1,3.1,0,0,0,.73.56l.61-.56Z"/><path class="a" d="M88.58,80.86c0,.33-.52.78-1.57,1.34A8.57,8.57,0,0,1,85.4,83a9.53,9.53,0,0,1-1.84.1,19,19,0,0,1-2,1.54,6.6,6.6,0,0,1-4,1.55,3.46,3.46,0,0,1-1.9-.58c-.8-.5-1.2-1-1.2-1.46s0-.85.09-1.51.08-1.16.08-1.49-.09-.27-.26-.26c.48-.73,1.22-1.82,2.2-3.25a9.39,9.39,0,0,1,7.17-3.82,2.27,2.27,0,0,1,1.81.72,15.24,15.24,0,0,1,1,1.76,5.54,5.54,0,0,1,.61,1.43A2.43,2.43,0,0,1,86.94,79a18.88,18.88,0,0,1-2.65,3.35v.24a5,5,0,0,0,1.38-.12A13.09,13.09,0,0,0,88.58,80.86Zm-2.81-3.53a11,11,0,0,0-.12-2.11,1.44,1.44,0,0,0-1.52-1.15Q82,74.07,80,76.44v.32a6.13,6.13,0,0,0,2-.52,6,6,0,0,1,2-.53l.19,0,.16.1a20.54,20.54,0,0,0-4.8,3.68q-2.93,2.92-2.93,4.94a1.54,1.54,0,0,0,0,.26,1.28,1.28,0,0,1,0,.28l.35.28c1.87,0,3.82-1.12,5.83-3.37a5.41,5.41,0,0,1,1-2c.52-.56,1-1.12,1.55-1.66A1.43,1.43,0,0,0,85.77,77.33Zm-6.35,8.39v-.28H79v.28Z"/><path class="a" d="M104,80.19a34.32,34.32,0,0,1-4.24,3.6q-2.3,2-3.54,1.95c-1.17,0-1.75-.81-1.75-2.44a3.66,3.66,0,0,1,.14-.9,4.22,4.22,0,0,0,.14-.9h-.28c-.74.62-1.82,1.57-3.26,2.83a4.34,4.34,0,0,1-2.93,1.32,2.76,2.76,0,0,1-1.62-.57,1.77,1.77,0,0,1-.87-1.43c0-.71.49-1.14,1.47-1.26s1.46.17,1.46.89c0,.41.19.61.57.61a2.87,2.87,0,0,0,1.54-.45,30.7,30.7,0,0,0,5-3.75,49.16,49.16,0,0,0,4.06-4.8,1,1,0,0,1,.87-.45h1.78a.61.61,0,0,1-.17.45v.33a1.29,1.29,0,0,1,.78.32l-4.69,6a3.51,3.51,0,0,0-.94,1.76.79.79,0,0,0,.17.44h.58a5.72,5.72,0,0,0,3-1.24c.87-.77,1.75-1.52,2.62-2.27ZM91.27,83.72H91A13.83,13.83,0,0,1,88,85v.32A5.1,5.1,0,0,0,90,84.92C90.84,84.58,91.27,84.18,91.27,83.72Zm6.68,1a7.44,7.44,0,0,0-1.12.11,7.88,7.88,0,0,1-1.13.12q0,.54.78.54C97.46,85.46,98,85.2,98,84.69Z"/><path class="a" d="M120.17,76.15l-8.39,11.11a4.51,4.51,0,0,0-1,2.7,2.7,2.7,0,0,0,2-1.06l4-4.24v.17c-.67.89-2,2.5-4.12,4.85a42.71,42.71,0,0,0-3.94,5c-.49,1-1.22,2.47-2.2,4.43-.32.57-.76,1.31-1.34,2.2l-.16.12v-.12l1.17-2.37v-.44h-.28l-3.47,5c0,.31.08.46.26.45a2.37,2.37,0,0,1-1,.56c-.59.73-1.19,1.48-1.78,2.23-.83,1-1.56,1.45-2.2,1.45a.91.91,0,0,1-1-1,5.43,5.43,0,0,1,1.14-2.77L111.17,85l2-4v-.24a3,3,0,0,0-.44-.09c-.78.7-2,1.79-3.52,3.26,0-.24,0-.35-.28-.35h0A24.9,24.9,0,0,1,105,85.55v.21a9.68,9.68,0,0,0,1.17.12c.54-.22.83-.33.86-.33h.19a4.25,4.25,0,0,1-1.83.71,2.46,2.46,0,0,1-1.47-.64,1.73,1.73,0,0,1-.8-1.29,2.89,2.89,0,0,1,.45-1.59,31.69,31.69,0,0,1,2.36-3.23c.25-.25.59-.63,1-1.13.08-.16.16-.31.26-.47h0v-.09l-.07-.17a1.13,1.13,0,0,0-.29.06,1.16,1.16,0,0,1-.32.06h0a13,13,0,0,1,2-1.5,1.31,1.31,0,0,0,.33-.89c0-.47-.31-.7-.93-.7a7.17,7.17,0,0,0-2.77,1H105a3.14,3.14,0,0,1,2.88-1.22c.87,0,1.42.22,1.64.66a1.39,1.39,0,0,0,1.38.66l.45.16q-1.11,1.58-3.42,4.59l-1.39,1.55a2.8,2.8,0,0,0-.82,1.83q0,.42.66.42c.64,0,1.86-.64,3.65-1.92a24,24,0,0,0,7.06-8.06.85.85,0,0,1,.82-.38l.83,0,.83,0a2.1,2.1,0,0,0-.75,1.43,2,2,0,0,0,.1.28h1.26Zm-18.93,28.18a.64.64,0,0,0-.71-.73.41.41,0,0,0-.35.16,7.65,7.65,0,0,0-1.36,2.93h.66C100.65,105.52,101.24,104.73,101.24,104.33Zm7.45-11.89V91.9a.79.79,0,0,0-.61.38l-6.84,9.89a2.85,2.85,0,0,0-.17.26v.4c0,.65.19,1,.56,1a.31.31,0,0,0,.17,0l5.67-8.11A5.71,5.71,0,0,0,108,94.6a8.87,8.87,0,0,0,.35-1Zm-5.3-12-.12.16h-.16l.16-.16Zm1-1a.15.15,0,0,1,0,.09l-.07.1a.37.37,0,0,1-.06-.1l0-.09s0,0,.07,0h0C104.4,79.43,104.42,79.44,104.42,79.46Zm.89-.73a.24.24,0,0,1-.09.14l-.12-.11s.05-.05.1-.05h0C105.29,78.71,105.31,78.72,105.31,78.73Zm.73-.51-.12.09a.12.12,0,0,1,0-.09v0c0-.06,0-.09,0-.09h0A.1.1,0,0,1,106,78.22Zm1.59,7.07a.13.13,0,0,1,0,.1l-.12-.12a.22.22,0,0,1,.07-.12h0a.1.1,0,0,1,.07.1Zm3.78,5.07a1.39,1.39,0,0,0-1.17.56,2,2,0,0,0-.45,1.31,1.48,1.48,0,0,0,1.07-.68A2.05,2.05,0,0,0,111.41,90.36Zm7.57-8c-.44.55-1.14,1.32-2.11,2.3.22-.28.47-.61.77-1A11.91,11.91,0,0,1,119,82.36Zm1-1c-.17.18-.52.5-1,1A6.83,6.83,0,0,1,120,81.4Zm1-.82-.77.71h-.12l.73-.71Z"/><path class="a" d="M134.8,80.86c0,.33-.53.78-1.57,1.34a8.57,8.57,0,0,1-1.61.77,9.6,9.6,0,0,1-1.84.1,20.68,20.68,0,0,1-2,1.54,6.6,6.6,0,0,1-4,1.55,3.46,3.46,0,0,1-1.9-.58c-.8-.5-1.2-1-1.2-1.46s0-.85.08-1.51.09-1.16.09-1.49-.09-.27-.26-.26c.48-.73,1.22-1.82,2.2-3.25A8.42,8.42,0,0,1,126,74.89a9.39,9.39,0,0,1,3-1c-.42-.37-.88-.77-1.36-1.17A10.35,10.35,0,0,1,126,70.88a3.5,3.5,0,0,1-.62-2.44,2.73,2.73,0,0,1,1.24-2.18,11.11,11.11,0,0,1,3.07-1.46,30.66,30.66,0,0,1,4.16-1l4.51-.76q1.37-.21,2.61-.45c.84-.17,1.62-.34,2.34-.53a10.07,10.07,0,0,0,2.06-.76,5.38,5.38,0,0,0,1.31-.93,2.07,2.07,0,0,1,.89-.74c.24,0,.39,0,.46.2a1.59,1.59,0,0,1,0,.82,4.05,4.05,0,0,1-.48,1.2,4.19,4.19,0,0,1-1.44,1.33,7.59,7.59,0,0,1-2.05.78,19.25,19.25,0,0,1-4.21.55l-4.6.1A32.31,32.31,0,0,0,131,65a5.8,5.8,0,0,0-3,1.29,2.57,2.57,0,0,0-.85,1.28,8.72,8.72,0,0,0-.3,1.7,3.32,3.32,0,0,0,.67,2.4,9.89,9.89,0,0,0,1.67,1.63l.1.56a7,7,0,0,1,.79,0,2.29,2.29,0,0,1,1.81.72,17,17,0,0,1,1,1.76,5.54,5.54,0,0,1,.61,1.43,2.43,2.43,0,0,1-.33,1.29,18.88,18.88,0,0,1-2.65,3.35v.24a5,5,0,0,0,1.38-.12A13.09,13.09,0,0,0,134.8,80.86ZM132,77.33a11,11,0,0,0-.12-2.11,1.45,1.45,0,0,0-1.53-1.15q-2.1,0-4.1,2.37v.32a6.13,6.13,0,0,0,2-.52,6,6,0,0,1,2-.53l.19,0,.16.1a20.54,20.54,0,0,0-4.8,3.68q-2.93,2.92-2.93,4.94a.91.91,0,0,0,0,.26,1.28,1.28,0,0,1,0,.28l.35.28c1.87,0,3.82-1.12,5.83-3.37a5.41,5.41,0,0,1,1-2c.52-.56,1-1.12,1.55-1.66A1.43,1.43,0,0,0,132,77.33Zm-6.36,8.39v-.28h-.42v.28Z"/></svg>